{
  "asset": {
    "extras": {
      "author": "jordanballard52 (https://sketchfab.com/jordanballard52)",
      "license": "CC-BY-4.0 (http://creativecommons.org/licenses/by/4.0/)",
      "source": "https://sketchfab.com/3d-models/tom-the-light-blue-ico-sphere-74db9fd55688417b8223d3dcb848e7b5",
      "title": "Tom The Light Blue Ico Sphere"
    },
    "generator": "Sketchfab-12.64.0",
    "version": "2.0"
  },
  "buffers": [
    {
      "uri": "data:application/octet-stream;base64,",
      "byteLength": 243264
    }
  ],
  "bufferViews": [
    {
      "buffer": 0,
      "byteOffset": 47040,
      "byteLength": 196224,
      "target": 34962,
      "byteStride": 12
    },
    {
      "buffer": 0,
      "byteOffset": 0,
      "byteLength": 47040,
      "target": 34963
    }
  ],
  "accessors": [
    {
      "bufferView": 0,
      "byteOffset": 2880,
      "componentType": 5126,
      "normalized": false,
      "count": 240,
      "max": [
        0.9554517865180969,
        0.9912198781967163,
        0.9435239434242249
      ],
      "min": [
        -0.9554517865180969,
        -0.9912197589874268,
        -0.9435239434242249
      ],
      "type": "VEC3"
    },
    {
      "bufferView": 0,
      "byteOffset": 0,
      "componentType": 5126,
      "normalized": false,
      "count": 240,
      "max": [
        4.034749507904053,
        3.932330846786499,
        6.7815141677856445
      ],
      "min": [
        -4.3763298988342285,
        -4.175227642059326,
        -1.6368446350097656
      ],
      "type": "VEC3"
    },
    {
      "bufferView": 1,
      "byteOffset": 0,
      "componentType": 5125,
      "normalized": false,
      "count": 240,
      "max": [
        239
      ],
      "min": [
        0
      ],
      "type": "SCALAR"
    }
  ],
  "scene": 0,
  "scenes": [
    {
      "nodes": [
        4
      ],
      "name": "Sketchfab_Scene"
    }
  ],
  "nodes": [
    {
      "name": "Object_2",
      "mesh": 0
    },
    {
      "name": "Object_3"
    },
    {
      "name": "Object_4"
    },
    {
      "name": "e8940117fcd24e68a92366c1a9992f27.3ds",
      "children": [
        0,
        1,
        2
      ]
    },
    {
      "name": "Sketchfab_model",
      "children": [
        3
      ],
      "matrix": [
        1,
        0,
        0,
        0,
        0,
        3.422854177870249e-8,
        -0.9999999403953552,
        0,
        0,
        0.9999999403953552,
        3.422854177870249e-8,
        0,
        0,
        0,
        0,
        1
      ]
    }
  ],
  "meshes": [
    {
      "primitives": [
        {
          "attributes": {
            "NORMAL": 0,
            "POSITION": 1
          },
          "material": 0,
          "mode": 4,
          "indices": 2
        }
      ]
    }
  ],
  "materials": [
    {
      "pbrMetallicRoughness": {
        "baseColorFactor": [
          0.27058823529411763,
          0.35294117647058826,
          0.6705882352941176,
          1
        ],
        "metallicFactor": 0,
        "roughnessFactor": 0.6
      },
      "emissiveFactor": [
        0,
        0,
        0
      ],
      "alphaMode": "OPAQUE",
      "doubleSided": true
    }
  ]
}